<svg width="24" height="24" viewBox="0 0 24 24" fill="none" xmlns="http://www.w3.org/2000/svg">
<g clip-path="url(#clip0_75_1063)">
<path d="M20 12C20 7.58281 16.4172 4 12 4C7.58281 4 4 7.58281 4 12C4 15.9922 6.925 19.3031 10.75 19.9031V14.3125H8.71875V12H10.75V10.2375C10.75 8.23281 11.9453 7.125 13.7719 7.125C14.6469 7.125 15.5625 7.28125 15.5625 7.28125V9.25H14.5531C13.5594 9.25 13.25 9.86719 13.25 10.5V12H15.4688L15.1141 14.3125H13.25V19.9031C17.075 19.3031 20 15.9937 20 12Z" fill="#1977F3"/>
<path d="M15.1141 14.3125L15.4688 12H13.25V10.5C13.25 9.86719 13.5594 9.25 14.5531 9.25H15.5625V7.28125C15.5625 7.28125 14.6469 7.125 13.7719 7.125C11.9453 7.125 10.75 8.23125 10.75 10.2375V12H8.71875V14.3125H10.75V19.9031C11.1578 19.9672 11.575 20 12 20C12.425 20 12.8422 19.9656 13.25 19.9031V14.3125H15.1141Z" fill="#FEFEFE"/>
</g>
<defs>
<clipPath id="clip0_75_1063">
<rect width="16" height="16" fill="white" transform="translate(4 4)"/>
</clipPath>
</defs>
</svg>
