<svg width="177" height="200" viewBox="0 0 177 200" fill="none" xmlns="http://www.w3.org/2000/svg">
<path d="M135.294 20.5882C135.294 20.6871 135.294 23.718 135.294 23.5294L141.176 29.4118L147.059 23.5294C147.059 23.4306 147.059 20.3996 147.059 20.5882C147.059 15.7231 151.017 11.7647 155.882 11.7647C160.747 11.7647 164.706 15.7227 164.706 20.5882V38.3129C164.706 63.6827 151.421 86.5071 130.648 99.2596L118.693 107.843C118.875 109.975 118.247 102.639 119.507 117.345C153.577 105.989 176.47 74.2286 176.47 38.3129C176.47 32.4063 176.47 26.4949 176.47 20.5882C176.47 9.23647 167.235 0 155.882 0C144.53 0 135.294 9.23529 135.294 20.5882Z" fill="#FF5959"/>
<path d="M45.8228 99.2592C25.0447 86.5039 11.7647 63.6769 11.7647 38.3129C11.7647 32.4063 11.7647 26.4949 11.7647 20.5882C11.7647 15.7231 15.7228 11.7647 20.5882 11.7647C25.4533 11.7647 29.4118 15.7227 29.4118 20.5882C29.4118 20.6871 29.4118 23.718 29.4118 23.5294L35.2941 29.4118L41.1765 23.5294C41.1765 23.4306 41.1765 20.3996 41.1765 20.5882C41.1765 9.23608 31.9408 0 20.5882 0C9.23609 0 0 9.23529 0 20.5882V38.3129C0 74.2263 22.8906 105.987 56.9632 117.345L56.9655 117.338L56.9679 117.331L57.5165 103.922L45.8228 99.2592Z" fill="#FF9059"/>
<path d="M29.4118 23.5293V26.4705C29.4698 28.3767 29.049 38.8556 31.1161 52.9411L59.6757 62.6144L88.2353 52.9411L94.1176 38.2352L88.2353 23.5293C84.2635 23.5293 33.3839 23.5293 29.4118 23.5293Z" fill="#FFD737"/>
<path d="M147.059 23.5293C143.087 23.5293 92.2075 23.5293 88.2353 23.5293V52.9411L116.795 65.2285L145.354 52.9411C147.111 40.9701 147.059 32.6607 147.059 23.5293Z" fill="#FFB048"/>
<path d="M31.1161 52.9412C34.1224 73.4286 41.5181 94.951 53.3957 111.68C59.8835 120.819 63.5047 130.974 64.4506 141.176L76.3428 147.059L88.2353 141.176L94.1177 97.0588L88.2353 52.9412C85.0608 52.9412 34.2906 52.9412 31.1161 52.9412Z" fill="#FFB048"/>
<path d="M123.075 111.68C134.874 95.0604 142.325 73.5851 145.354 52.9412H116.795H88.2353V141.176L100.127 147.059L112.019 141.176C112.966 130.973 116.587 120.818 123.075 111.68Z" fill="#FF9059"/>
<path d="M76.4706 88.2354C76.4706 94.7327 81.7376 100 88.2353 100L94.1176 88.2354L88.2353 76.4707C81.738 76.4707 76.4706 81.7378 76.4706 88.2354Z" fill="#FFD737"/>
<path d="M100 88.2354C100 81.7382 94.7329 76.4707 88.2353 76.4707V100C94.7326 100 100 94.7331 100 88.2354Z" fill="#FFB048"/>
<path d="M167.647 111.765C163.532 111.765 159.997 111.765 155.882 111.765V120.588C152.796 120.588 150.144 120.588 147.059 120.588V132.353H155.882V141.176H167.647C167.647 138.091 167.647 135.439 167.647 132.353H176.47C176.47 128.238 176.47 124.703 176.47 120.588C173.384 120.588 170.733 120.588 167.647 120.588C167.647 117.502 167.647 114.851 167.647 111.765Z" fill="#FFB048"/>
<path d="M20.5882 135.294C16.4737 135.294 12.938 135.294 8.82353 135.294V144.118C5.73765 144.118 3.08588 144.118 0 144.118V155.882H8.82353V164.706H20.5882C20.5882 161.62 20.5882 158.968 20.5882 155.882H29.4118C29.4118 151.768 29.4118 148.232 29.4118 144.118C26.3259 144.118 23.6741 144.118 20.5882 144.118C20.5882 141.032 20.5882 138.38 20.5882 135.294Z" fill="#FFD737"/>
<path d="M47.0588 141.177V164.706L67.6471 170.588L88.2353 164.706L94.1177 152.941L88.2353 141.177C77.1459 141.177 53.5188 141.177 47.0588 141.177Z" fill="#FFD737"/>
<path d="M129.411 141.177C118.322 141.177 94.6953 141.177 88.2353 141.177V164.706L108.823 170.588L129.411 164.706C129.411 161.859 129.411 144.042 129.411 141.177Z" fill="#FFB048"/>
<path d="M35.2941 164.706V188.235L61.7647 194.118L88.2353 188.235L94.1177 176.471L88.2353 164.706C81.8302 164.706 41.7416 164.706 35.2941 164.706Z" fill="#FFB048"/>
<path d="M141.176 164.706C134.771 164.706 94.6828 164.706 88.2353 164.706V188.235L114.706 194.118L141.176 188.235C141.176 185.389 141.176 167.571 141.176 164.706Z" fill="#FF9059"/>
<path d="M23.5294 188.235V200H88.2353L94.1177 194.118L88.2353 188.235C86.4098 188.235 25.3537 188.235 23.5294 188.235Z" fill="#FFD737"/>
<path d="M152.941 188.235C151.115 188.235 90.0596 188.235 88.2353 188.235V200H152.941C152.941 195.886 152.941 192.35 152.941 188.235Z" fill="#FFB048"/>
</svg>
