<svg width="200" height="200" viewBox="0 0 200 200" fill="none" xmlns="http://www.w3.org/2000/svg">
<path d="M69.2742 130.717L112.022 98.5596L145.095 54.9007L144.572 22.7446L132.321 0C127.75 6.19436 54.6191 105.298 50.048 111.492L52.9795 127.786L69.2742 130.717Z" fill="#CFE7FF"/>
<path d="M88.5001 149.942C94.6948 145.371 193.805 72.2449 199.999 67.6741L173.854 54.9006H145.095C140.882 59.1131 73.4869 126.504 69.2738 130.717L72.1849 147.031L88.5001 149.942Z" fill="#BADCFF"/>
<path d="M35.9973 139.036C32.5222 142.51 8.82207 166.209 5.16036 169.871C-1.71992 176.75 -1.72031 187.946 5.16036 194.826L32.4356 178.787L48.4758 151.514L49.2617 138.25L35.9973 139.036Z" fill="#55546B"/>
<path d="M5.16077 194.826C12.0689 201.735 23.2313 201.713 30.1182 194.826L60.9548 163.992V151.514H48.4758C46.0726 153.917 7.564 192.423 5.16077 194.826Z" fill="#424157"/>
<path d="M145.095 54.9007L177.253 33.071L199.999 0C198.091 0 134.229 0 132.321 0C133.029 3.04659 144.386 51.8541 145.095 54.9007Z" fill="#E3F2FF"/>
<path d="M199.999 67.6741C199.999 65.7663 199.999 1.9078 199.999 0C196.947 3.05169 148.147 51.849 145.095 54.9007C148.142 55.6093 196.952 66.9655 199.999 67.6741Z" fill="#CFE7FF"/>
<path d="M19.7158 101.958V122.755C27.5397 130.579 43.9144 146.952 48.4762 151.514L65.673 147.913L69.2743 130.717C61.4508 122.894 45.0757 106.52 40.5139 101.958C33.8999 101.958 26.3294 101.958 19.7158 101.958Z" fill="#424157"/>
<path d="M77.2365 180.272H98.0346C98.0346 173.659 98.0346 166.089 98.0346 159.476C90.2107 151.652 73.8359 135.278 69.2738 130.717C63.6736 136.317 51.7382 148.252 48.4757 151.514C56.2999 159.337 72.6747 175.711 77.2365 180.272Z" fill="#2E2D3F"/>
</svg>
