<svg width="200" height="200" viewBox="0 0 200 200" fill="none" xmlns="http://www.w3.org/2000/svg">
<path d="M81.5718 58.8235C81.3267 60.7855 73.1196 126.451 72.8745 128.413L82.3529 147.059L100 150.114L105.882 104.469L100 58.8235L90.7859 52.9412L81.5718 58.8235Z" fill="#E3F2FF"/>
<path d="M127.125 128.413C126.88 126.451 118.673 60.7855 118.428 58.8235L109.214 52.9412L100 58.8235V150.114L117.647 147.059L127.125 128.413Z" fill="#CFE7FF"/>
<path d="M82.353 23.5293V35.294L91.1766 41.1764L100 35.294L105.882 29.4117L100 23.5293L91.1766 17.647L82.353 23.5293Z" fill="#FFD737"/>
<path d="M117.647 23.5293L108.824 17.647L100 23.5293V35.294L108.824 41.1764L117.647 35.294C117.647 31.1795 117.647 27.6438 117.647 23.5293Z" fill="#FFB048"/>
<path d="M64.7059 121.879C61.6435 124.328 43.9737 138.464 41.102 140.761L41.1765 147.059L31.6824 148.298C23.0659 155.191 5.02706 169.622 0 173.643V200H100L105.882 175.057L100 150.114C95.7314 146.699 69.0027 125.316 64.7059 121.879Z" fill="#FFD737"/>
<path d="M200 173.643C191.626 166.945 174.094 152.92 169.208 149.012L158.824 147.059L159.792 141.479C156.829 139.108 138.277 124.265 135.294 121.879C132.148 124.396 112.562 140.065 109.408 142.588L111.765 152.941L100 150.114V200H200C200 192.838 200 177.831 200 173.643Z" fill="#FFB048"/>
<path d="M146.945 151.753C149.515 154.966 151.724 157.728 154.294 160.941C159.259 156.97 164.243 152.983 169.208 149.012C165.915 146.377 163.085 144.113 159.792 141.479C155.505 144.907 151.23 148.326 146.945 151.753Z" fill="#FF9059"/>
<path d="M128.184 157.608C121.62 152.357 115.973 147.84 109.408 142.588C106.118 145.22 103.29 147.482 100 150.114C105.662 154.648 117.525 164.146 120.835 166.796C123.405 163.582 125.614 160.821 128.184 157.608Z" fill="#FF9059"/>
<path d="M56.4392 153.031C53.8675 156.245 51.6581 159.006 49.0863 162.22C43.2832 157.578 37.4855 152.94 31.6824 148.298C34.9769 145.662 37.8075 143.397 41.102 140.761C45.9745 144.659 51.5667 149.133 56.4392 153.031Z" fill="#FFB048"/>
<path d="M82.353 11.7647V23.5294H100L105.882 17.647L100 11.7647L91.1766 5.88232L82.353 11.7647Z" fill="#424157"/>
<path d="M117.647 11.7647L108.824 5.88232L100 11.7647V23.5294H117.647C117.647 19.4149 117.647 15.8792 117.647 11.7647Z" fill="#2E2D3F"/>
<path d="M82.353 35.2942V47.0589L91.1766 52.9412L100 47.0589L105.882 41.1765L100 35.2942C94.1252 35.2942 88.2279 35.2942 82.353 35.2942Z" fill="#424157"/>
<path d="M117.647 35.2942C111.772 35.2942 105.875 35.2942 100 35.2942V47.0589L108.824 52.9412L117.647 47.0589C117.647 42.9444 117.647 39.4087 117.647 35.2942Z" fill="#2E2D3F"/>
<path d="M70.5881 0V11.7647H99.9999V0C92.0803 0 75.2015 0 70.5881 0Z" fill="#55546B"/>
<path d="M129.412 0C121.493 0 104.613 0 100 0V11.7647H129.412C129.412 7.6502 129.412 4.11451 129.412 0Z" fill="#424157"/>
<path d="M152.941 58.8235H170.588V47.0588H152.941V58.8235Z" fill="#BADCFF"/>
<path d="M145.765 22.7448C147.339 26.5464 148.692 29.8126 150.267 33.6142L166.57 26.8609L162.068 15.9915L145.765 22.7448Z" fill="#BADCFF"/>
<path d="M49.7334 33.6142L33.4294 26.8609L37.9314 15.9915L54.2353 22.7448C52.6608 26.5464 51.3079 29.8126 49.7334 33.6142Z" fill="#CFE7FF"/>
<path d="M29.4117 47.0588H47.0588V58.8235H29.4117V47.0588Z" fill="#CFE7FF"/>
<path d="M37.9316 89.8911L33.4297 79.0216L49.7336 72.2683C51.3081 76.0699 52.6611 79.3362 54.2356 83.1377L37.9316 89.8911Z" fill="#CFE7FF"/>
<path d="M145.765 83.1377L162.068 89.8911L166.57 79.0216L150.267 72.2683C148.692 76.0699 147.339 79.3362 145.765 83.1377Z" fill="#BADCFF"/>
<path d="M58.8235 47.0588V70.5883H70.5882C70.5882 66.4737 70.5882 62.9381 70.5882 58.8235H100L105.882 52.9412L100 47.0588C88.9106 47.0588 65.2835 47.0588 58.8235 47.0588Z" fill="#55546B"/>
<path d="M129.412 70.5883H141.176C141.176 67.7416 141.176 49.9243 141.176 47.0588C130.087 47.0588 106.46 47.0588 100 47.0588V58.8235H129.412V70.5883Z" fill="#424157"/>
</svg>
